<svg width="157" height="27" viewBox="0 0 157 27" fill="none" xmlns="http://www.w3.org/2000/svg">
<path d="M8.547 7.755H7.359L0 9.735V10.758L1.749 11.88V23.43C1.749 24.42 1.221 24.519 0 24.618V26.004H10.296V24.618C9.075 24.519 8.547 24.42 8.547 23.43V7.755ZM5.247 6.534C7.425 6.534 8.745 5.016 8.745 3.267C8.745 1.518 7.425 0 5.247 0C3.036 0 1.749 1.518 1.749 3.267C1.749 5.016 3.036 6.534 5.247 6.534Z" fill="#222222"/>
<path d="M24.5721 23.43C24.5721 24.42 24.1431 24.519 22.9221 24.618V26.004H33.1191V24.618C31.8981 24.519 31.3701 24.42 31.3701 23.43V13.167C31.3701 9.537 29.4561 7.755 26.2551 7.755C23.1531 7.755 21.2721 9.537 20.0841 11.088L20.2161 7.755H18.8961L11.5371 9.735V10.758L13.2861 11.88V23.43C13.2861 24.42 12.7581 24.519 11.5371 24.618V26.004H21.7341V24.618C20.5131 24.519 20.0841 24.42 20.0841 23.43V12.144C20.8431 11.88 21.6021 11.715 22.5261 11.715C24.1761 11.715 24.5721 12.54 24.5721 13.761V23.43Z" fill="#222222"/>
<path d="M42.6757 9.966H46.4377V8.085H42.6757V3.762C42.6757 2.508 43.0057 1.782 43.9297 1.782C44.9197 1.782 45.0187 2.937 45.0187 4.092C45.0187 4.686 44.9527 5.247 44.8537 5.709H48.2527C49.0117 5.346 49.5397 4.521 49.5397 3.564C49.5397 1.452 47.8567 0.165 44.0617 0.165C39.6067 0.165 35.8777 2.409 35.8777 7.656V7.92L33.5347 8.481V9.966H35.8777V23.43C35.8777 24.42 35.3497 24.519 34.1287 24.618V26.004H45.2497V24.618C43.4017 24.354 42.6757 24.255 42.6757 22.803V9.966Z" fill="#222222"/>
<path d="M56.6876 24.882C54.8066 24.882 54.1796 21.417 54.1796 15.774C54.1796 11.649 54.6086 9.207 56.3576 9.207C58.2386 9.207 58.8656 12.672 58.8656 18.315C58.8656 22.44 58.4366 24.882 56.6876 24.882ZM56.5226 26.334C62.1656 26.334 66.0926 22.242 66.0926 16.731C66.0926 11.22 62.1656 7.755 56.5226 7.755C50.8796 7.755 46.9526 11.847 46.9526 17.358C46.9526 22.869 50.8796 26.334 56.5226 26.334Z" fill="#222222"/>
<path d="M74.5406 26.334C79.1606 26.334 82.1636 24.09 82.1636 20.097C82.1636 16.302 79.9526 14.949 75.8276 13.596C73.8146 12.936 72.8576 12.441 72.8576 11.121C72.8576 9.933 73.7816 9.24 75.1016 9.24C77.3786 9.24 78.8636 11.154 79.1936 13.233H80.7446V9.273C79.3256 8.349 77.2136 7.755 74.9366 7.755C70.8116 7.755 67.8416 9.867 67.8416 13.794C67.8416 17.259 69.9206 18.909 73.7486 20.031C75.8606 20.658 77.1476 21.153 77.1476 22.77C77.1476 24.156 75.9596 24.849 74.4746 24.849C71.9336 24.849 70.1516 22.836 69.5576 20.196H67.8746L68.0726 24.651C69.5576 25.674 71.6696 26.334 74.5406 26.334Z" fill="#222222"/>
<path d="M92.1066 22.77C90.5226 22.77 89.9616 21.516 89.9616 19.866C89.9616 17.919 90.6876 17.391 91.7436 16.995L93.0636 16.5V22.605C92.7336 22.704 92.4696 22.77 92.1066 22.77ZM99.7296 13.629C99.7296 9.174 96.7596 7.755 91.9416 7.755C87.8166 7.755 84.5826 9.108 84.5826 12.243C84.5826 13.497 85.3086 14.322 86.2986 14.652L90.3906 14.124C90.1926 13.299 90.0606 12.474 90.0606 11.682C90.0606 10.164 90.4896 9.141 91.6446 9.141C92.7336 9.141 93.0636 10.032 93.0636 11.352V14.982L87.7176 16.83C85.4076 17.622 83.4276 18.81 83.4276 21.714C83.4276 24.651 85.4406 26.202 88.2786 26.202C90.7206 26.202 92.2386 25.014 93.1626 23.595C93.7566 25.344 95.2086 26.334 97.2216 26.334C99.2016 26.334 100.654 25.608 101.809 24.552L101.578 23.562C101.413 23.628 100.984 23.727 100.555 23.727C99.7956 23.727 99.7296 23.034 99.7296 22.374V13.629Z" fill="#222222"/>
<path d="M110.895 0.165H109.74L102.348 1.65V2.772L104.097 3.663V23.43C104.097 24.42 103.569 24.519 102.348 24.618V26.004H112.644V24.618C111.423 24.519 110.895 24.42 110.895 23.43V0.165Z" fill="#222222"/>
<path d="M132.963 12.111L133.161 7.755H131.907L124.515 9.405V10.725L125.01 10.89C125.934 11.187 126.165 11.946 126.165 12.87V22.11C125.34 22.374 124.845 22.473 124.02 22.473C122.535 22.473 121.941 21.615 121.941 20.097V12.111L122.139 7.755H120.885L113.493 9.405V10.725L113.988 10.89C114.912 11.187 115.143 11.946 115.143 12.87V20.691C115.143 24.552 117.255 26.334 120.225 26.334C123.294 26.334 125.043 24.618 126.165 23.1L126.066 26.334H127.353L134.778 25.212V23.76H134.019C133.062 23.76 132.963 23.199 132.963 22.077V12.111Z" fill="#222222"/>
<path d="M145.963 9.966C147.547 9.966 147.943 11.022 147.943 13.035V22.407C147.448 22.572 146.953 22.638 146.491 22.638C144.148 22.638 142.762 19.932 142.762 15.873C142.762 12.309 143.785 9.966 145.963 9.966ZM147.943 3.663V8.811C147.217 8.217 146.095 7.92 144.808 7.92C139.891 7.92 135.898 11.319 135.898 17.853C135.898 23.397 138.736 26.334 142.564 26.334C144.775 26.334 146.59 25.311 147.943 23.199L147.844 26.334H149.131L156.556 25.212V23.76H155.797C154.84 23.76 154.741 23.199 154.741 22.077V0.165H153.586L146.194 1.65V2.772L147.943 3.663Z" fill="#222222"/>
</svg>
