<svg width="155" height="52" viewBox="0 0 155 52" fill="none" xmlns="http://www.w3.org/2000/svg">
<g clip-path="url(#clip0)">
<path d="M66.645 38.5328C66.4414 38.5495 66.2601 38.5803 66.0788 38.5803C64.2211 38.5831 62.3635 38.5971 60.5059 38.5635C60.2771 38.5607 59.9285 38.3704 59.842 38.1745C59.4348 37.2398 58.7152 36.7192 57.778 36.4589C56.2885 36.0447 54.7935 36.0839 53.3068 36.4701C53 36.5485 52.7016 36.708 52.4366 36.8871C51.9261 37.2314 51.7644 37.7435 51.8257 38.3452C51.8843 38.919 52.2664 39.2492 52.7546 39.3528C53.9065 39.599 55.0752 39.7921 56.2439 39.9489C58.7012 40.2763 61.1976 40.3519 63.5768 41.1467C63.8195 41.2279 64.0622 41.309 64.2965 41.407C65.9923 42.1262 67.1777 43.2709 67.3423 45.2076C67.5236 47.3205 66.8402 49.0529 64.9966 50.2144C63.4039 51.2163 61.6076 51.5941 59.7751 51.7732C56.8101 52.0643 53.8284 52.165 50.9053 51.485C49.6836 51.2023 48.4731 50.6957 47.3825 50.0744C45.84 49.1929 45.006 47.5053 44.9753 45.7169C45.1455 45.6973 45.3212 45.6581 45.4969 45.6581C47.3546 45.6525 49.2122 45.6441 51.0698 45.6693C51.293 45.6721 51.664 45.8121 51.7142 45.9688C52.1604 47.3989 53.265 48.0202 54.5982 48.121C55.951 48.2245 57.3261 48.1014 58.6845 47.995C59.1224 47.9614 59.6412 47.7655 59.9369 47.4605C60.2744 47.1162 60.5226 46.5873 60.5951 46.1087C60.6788 45.5434 60.2325 45.1348 59.7054 45.0145C58.4641 44.7318 57.2118 44.4995 55.9566 44.2924C53.7838 43.9342 51.5886 43.6907 49.4353 43.2513C47.7395 42.9071 46.3002 42.0871 45.7117 40.2707C44.9084 37.7883 45.9014 35.2079 48.1802 33.9373C50.0127 32.9158 52.0293 32.6164 54.0794 32.5072C56.944 32.3533 59.7918 32.4625 62.5392 33.4056C64.7567 34.1668 66.1736 35.6585 66.606 38.0094C66.6311 38.1689 66.6283 38.3312 66.645 38.5328Z" fill="white"/>
<path d="M34.6856 7.44238C36.7581 7.44238 38.7245 7.44238 40.7495 7.44238C40.7495 13.4595 40.7495 19.457 40.7495 25.5021C38.8221 25.5021 36.9059 25.5021 34.9032 25.5021C34.9032 24.7689 34.9032 24.0384 34.9032 23.3864C33.8266 24.0496 32.842 24.8417 31.7235 25.3118C28.7055 26.5796 25.6206 26.644 22.6026 25.2782C20.3824 24.2735 19.2416 22.4712 19.2165 20.042C19.1774 16.0007 19.2025 11.9594 19.2025 7.92095C19.2025 7.78382 19.2276 7.64948 19.2444 7.46477C21.2443 7.46477 23.2246 7.46477 25.3193 7.46477C25.3193 7.75024 25.3193 8.01891 25.3193 8.28758C25.3193 11.4221 25.3138 14.5566 25.3221 17.6939C25.3277 20.375 26.5438 21.6008 29.2466 21.6148C29.9356 21.6176 30.6496 21.57 31.3134 21.4021C33.464 20.8508 34.6494 19.1996 34.6801 16.7087C34.7135 13.8989 34.6912 11.089 34.6912 8.27918C34.6856 8.0245 34.6856 7.77262 34.6856 7.44238Z" stroke="white"/>
<path d="M127.888 51.2272C125.908 51.2272 123.992 51.2272 121.992 51.2272C121.992 50.4576 121.992 49.73 121.992 48.9435C118.773 51.9297 115.075 52.5398 111.055 51.5099C107.931 50.7067 106.358 48.5909 106.339 45.3752C106.316 41.5187 106.333 37.6621 106.333 33.8056C106.333 33.6209 106.35 33.4362 106.367 33.1367C106.604 33.1367 106.824 33.1367 107.042 33.1367C108.576 33.1367 110.11 33.1731 111.641 33.1199C112.319 33.0947 112.444 33.341 112.439 33.9511C112.414 36.9933 112.425 40.0382 112.428 43.0803C112.428 43.4526 112.433 43.8248 112.464 44.1942C112.598 45.8622 113.49 46.9593 115.147 47.1832C116.207 47.3259 117.345 47.3399 118.386 47.1188C120.614 46.6486 121.788 44.9135 121.816 42.2715C121.847 39.5316 121.825 36.789 121.825 34.0463C121.825 33.772 121.825 33.4977 121.825 33.1787C123.875 33.1787 125.858 33.1787 127.886 33.1787C127.888 39.1986 127.888 45.1793 127.888 51.2272Z" fill="white"/>
<path d="M77.0294 26.0593C75.0127 26.0593 73.0491 26.0593 71.0018 26.0593C71.0018 25.7739 71.0018 25.5276 71.0018 25.2785C71.0018 22.1888 71.0046 19.1019 70.999 16.0121C70.9962 13.415 69.7578 12.164 67.1582 12.1304C66.6952 12.1248 66.2238 12.1164 65.7692 12.1808C63.3676 12.5166 61.8447 13.9635 61.7024 16.3984C61.5351 19.2698 61.6104 22.1524 61.5825 25.0322C61.5797 25.3541 61.5825 25.6731 61.5825 26.0453C59.5575 26.0453 57.5967 26.0453 55.5745 26.0453C55.5745 20.0562 55.5745 14.0587 55.5745 8.00797C57.4851 8.00797 59.3957 8.00797 61.3733 8.00797C61.3733 8.83357 61.3733 9.63679 61.3733 10.4316C61.4793 10.4428 61.5435 10.4708 61.5602 10.4512C64.3606 7.70011 67.7579 7.08721 71.4704 7.76168C72.3685 7.92401 73.2667 8.25425 74.0783 8.67685C75.9248 9.64238 76.9875 11.2348 77.0266 13.3198C77.1047 17.4506 77.0712 21.5871 77.0824 25.7207C77.0852 25.813 77.0545 25.9026 77.0294 26.0593Z" fill="white"/>
<path d="M1 11.512C1 10.1631 1 8.89529 1 7.51555C2.04039 7.51555 3.07799 7.48197 4.11001 7.52954C4.70412 7.55473 4.85474 7.34203 4.84637 6.7767C4.8129 5.05833 4.84637 3.33715 4.82685 1.61877C4.82127 1.17938 4.94121 0.99747 5.41259 1.00307C7.06104 1.02546 8.71227 1.02546 10.3607 1.00307C10.8237 0.99747 10.9632 1.16259 10.9576 1.60758C10.9381 3.11885 10.9493 4.62733 10.9493 6.13861C10.9493 7.51555 10.9493 7.51555 12.2937 7.51555C13.4512 7.51555 14.6087 7.51555 15.8193 7.51555C15.8193 8.84492 15.8193 10.1099 15.8193 11.4561C15.5794 11.4757 15.3367 11.5092 15.0941 11.5092C13.9086 11.5148 12.7232 11.5204 11.5406 11.5064C11.1529 11.5008 10.9437 11.5904 10.9465 12.0438C10.966 14.8089 10.9465 17.5739 10.9827 20.339C10.9967 21.5005 11.4402 21.9091 12.6228 21.9426C13.7106 21.9762 14.8012 21.951 15.9978 21.951C15.9978 23.1573 16.0062 24.3803 15.9838 25.6005C15.9811 25.7152 15.7747 25.9167 15.6491 25.9279C13.2448 26.1406 10.8377 26.4933 8.43335 26.0007C5.9286 25.4886 4.92447 24.3411 4.87148 21.7803C4.80732 18.6906 4.84358 15.6009 4.83801 12.5112C4.83522 11.5148 4.83801 11.5148 3.81156 11.5148C2.88274 11.512 1.9595 11.512 1 11.512Z" stroke="white"/>
<path d="M83.8463 11.9737C82.488 11.9737 81.2663 11.9737 79.9944 11.9737C79.9944 10.6248 79.9944 9.34019 79.9944 7.96325C81.2635 7.96325 82.5019 7.96325 83.7543 7.96325C83.8268 6.90815 83.8603 5.93702 83.9663 4.97708C84.1727 3.12156 85.1824 1.97131 87.0372 1.59629C89.6117 1.07854 92.2001 1.26605 94.8248 1.3752C94.8248 2.6178 94.8248 3.78765 94.8248 4.99107C93.857 4.99107 92.9337 4.99387 92.0133 4.99107C90.3285 4.98547 89.9659 5.3381 89.9408 7.0117C89.9353 7.28877 89.9408 7.56584 89.9408 7.93526C91.567 7.93526 93.1541 7.93526 94.7914 7.93526C94.7914 9.3122 94.7914 10.5968 94.7914 11.9513C93.2071 11.9513 91.6367 11.9513 89.9743 11.9513C89.9743 16.6699 89.9743 21.3213 89.9743 26.0342C87.8991 26.0342 85.9187 26.0342 83.8463 26.0342C83.8463 21.3968 83.8463 16.7426 83.8463 11.9737Z" fill="white"/>
<path d="M102.303 51.2416C100.283 51.2416 98.3171 51.2416 96.3032 51.2416C96.3032 43.0891 96.3032 34.973 96.3032 26.7925C98.3031 26.7925 100.281 26.7925 102.303 26.7925C102.303 34.9282 102.303 43.0471 102.303 51.2416Z" fill="white"/>
<path d="M51.2959 26.0645C49.2904 26.0645 47.324 26.0645 45.3018 26.0645C45.3018 20.0418 45.3018 14.0443 45.3018 8.00195C47.2961 8.00195 49.2597 8.00195 51.2959 8.00195C51.2959 13.9939 51.2959 19.9886 51.2959 26.0645Z" fill="white"/>
<path d="M51.3293 1.55982C51.3293 2.99833 51.3293 4.3137 51.3293 5.72983C50.3056 5.72983 49.3182 5.72983 48.328 5.72983C47.335 5.72983 46.3421 5.72983 45.2543 5.72983C45.2543 4.39487 45.2459 3.12707 45.271 1.85928C45.2738 1.75853 45.5109 1.57382 45.6392 1.57382C47.5136 1.55422 49.3879 1.55982 51.3293 1.55982Z" fill="white"/>
<path d="M154.414 26.7282C152.766 26.7422 151.114 26.7534 149.469 26.7226C148.936 26.7115 148.799 26.8962 148.805 27.4055C148.827 29.7284 148.813 32.0513 148.813 34.3742C148.813 34.6233 148.813 34.8751 148.813 35.0487C147.826 34.4749 146.945 33.8145 145.96 33.417C143.913 32.5914 141.751 32.4991 139.586 32.8489C135.16 33.5626 132.056 36.4452 131.383 40.6096C130.809 44.1723 131.551 47.3936 134.502 49.7556C136.984 51.7427 139.93 52.1317 142.998 51.9022C145.201 51.7343 147.151 50.973 148.705 49.3414C148.76 49.2826 148.844 49.2519 149.034 49.1371C149.034 49.8956 149.034 50.5504 149.034 51.2165C151.061 51.2165 152.994 51.2165 154.941 51.2165C154.964 51.0738 154.989 50.9842 154.989 50.8947C154.992 43.0192 154.989 35.1466 155 27.2712C155 26.8262 154.813 26.7226 154.414 26.7282ZM144.284 47.4691C143.238 47.5335 142.133 47.4803 141.129 47.2088C138.856 46.5903 137.587 44.7908 137.525 42.4035C137.467 40.117 138.711 38.2615 140.9 37.4807C142.457 36.9238 144.049 36.9154 145.611 37.4583C147.818 38.2251 149.025 39.9883 149.023 42.3448C149.017 45.1434 147.081 47.2984 144.284 47.4691Z" fill="white"/>
<path d="M92.5543 38.7344C92.5459 35.9497 91.3968 34.3181 88.7498 33.3918C85.9382 32.4094 83.0095 32.3674 80.0808 32.499C78.0335 32.5913 76.0057 32.8236 74.1481 33.8032C72.2123 34.8275 71.1998 36.4619 70.9209 38.698C72.7311 38.698 74.466 38.684 76.2037 38.7064C76.6389 38.712 76.8564 38.5833 77.021 38.1607C77.3836 37.2399 77.9889 36.4703 79.0014 36.2604C81.0487 35.8378 83.1099 35.8378 85.1265 36.4451C86.1335 36.7501 86.5295 37.461 86.4124 38.4741C86.3008 39.4285 85.8406 39.8595 84.7165 39.9546C82.8673 40.1113 81.0152 40.2345 79.1631 40.3688C77.06 40.5227 74.9346 40.5507 72.9403 41.3651C71.3505 42.0144 70.179 43.0667 69.8443 44.8383C69.2195 48.1351 70.8065 50.6539 74.1062 51.4963C77.074 52.2547 80.0585 52.1204 82.976 51.278C84.2619 50.9086 85.4585 50.2229 86.7276 49.6688C86.7276 50.1054 86.7276 50.6455 86.7276 51.222C88.6968 51.222 90.5851 51.222 92.5153 51.222C92.532 50.9758 92.5571 50.7742 92.5571 50.5699C92.5599 46.6294 92.5683 42.6833 92.5543 38.7344ZM83.7989 47.6845C82.0249 48.443 80.1812 48.6529 78.2985 48.1743C77.8633 48.0623 77.431 47.8357 77.0628 47.5698C76.3293 47.0408 76.1507 46.2544 76.2874 45.4008C76.4129 44.62 76.8899 44.0435 77.6486 43.8923C78.9149 43.6405 80.2035 43.4949 81.4866 43.3326C83.1741 43.1199 84.8671 42.938 86.6132 42.7337C86.9396 45.0958 86.0609 46.719 83.7989 47.6845Z" fill="white"/>
<path d="M115.027 7.96043C111.58 7.02008 108.085 7.02288 104.618 7.84569C101.608 8.55935 99.1817 10.1098 97.9823 13.1324C97.271 14.9263 97.1818 16.807 97.4161 18.6905C97.801 21.7746 99.3881 24.0443 102.222 25.3905C104.562 26.5016 107.067 26.759 109.622 26.8598C110.869 26.7394 112.115 26.6331 113.359 26.4932C113.795 26.4456 114.227 26.3364 114.654 26.2301C118.21 25.3373 121.309 23.2159 121.83 18.559C122.383 13.6165 120.558 9.46611 115.027 7.96043ZM114.595 20.5068C113.917 21.4248 112.991 21.9845 111.912 22.2728C110.38 22.6842 108.83 22.6786 107.298 22.2672C104.955 21.6403 103.644 19.7512 103.644 17.0617C103.644 13.804 105.497 11.7918 108.768 11.5679C109.594 11.5119 110.453 11.5231 111.259 11.6827C115.256 12.4663 117.03 17.2044 114.595 20.5068Z" fill="white"/>
</g>
<defs>
<clipPath id="clip0">
<rect width="155" height="52" fill="white"/>
</clipPath>
</defs>
</svg>
