<svg width="155" height="52" viewBox="0 0 155 52" fill="none" xmlns="http://www.w3.org/2000/svg">
<g clip-path="url(#clip0)">
<path d="M66.6448 38.5328C66.4411 38.5495 66.2598 38.5803 66.0785 38.5803C64.2209 38.5831 62.3633 38.5971 60.5056 38.5635C60.2769 38.5607 59.9283 38.3704 59.8418 38.1745C59.4346 37.2398 58.7149 36.7192 57.7777 36.4589C56.2883 36.0447 54.7932 36.0839 53.3066 36.4701C52.9998 36.5485 52.7013 36.708 52.4363 36.8871C51.9259 37.2314 51.7641 37.7435 51.8255 38.3452C51.8841 38.919 52.2662 39.2492 52.7543 39.3528C53.9063 39.599 55.075 39.7921 56.2437 39.9489C58.701 40.2763 61.1974 40.3519 63.5766 41.1467C63.8193 41.2279 64.0619 41.309 64.2962 41.407C65.9921 42.1262 67.1775 43.2709 67.3421 45.2076C67.5234 47.3205 66.84 49.0529 64.9963 50.2144C63.4037 51.2163 61.6074 51.5941 59.7748 51.7732C56.8099 52.0643 53.8282 52.165 50.905 51.485C49.6833 51.2023 48.4728 50.6957 47.3822 50.0744C45.8398 49.1929 45.0058 47.5053 44.9751 45.7169C45.1452 45.6973 45.321 45.6581 45.4967 45.6581C47.3543 45.6525 49.212 45.6441 51.0696 45.6693C51.2927 45.6721 51.6637 45.8121 51.7139 45.9688C52.1602 47.3989 53.2647 48.0202 54.598 48.121C55.9508 48.2245 57.3259 48.1014 58.6842 47.995C59.1222 47.9614 59.641 47.7655 59.9366 47.4605C60.2741 47.1162 60.5224 46.5873 60.5949 46.1087C60.6786 45.5434 60.2323 45.1348 59.7051 45.0145C58.4639 44.7318 57.2115 44.4995 55.9564 44.2924C53.7835 43.9342 51.5884 43.6907 49.4351 43.2513C47.7392 42.9071 46.3 42.0871 45.7115 40.2707C44.9082 37.7883 45.9011 35.2079 48.1799 33.9373C50.0125 32.9158 52.0291 32.6164 54.0792 32.5072C56.9438 32.3533 59.7916 32.4625 62.539 33.4056C64.7564 34.1668 66.1734 35.6585 66.6057 38.0094C66.6308 38.1689 66.628 38.3312 66.6448 38.5328Z" fill="black"/>
<path d="M34.6859 7.44238C36.7583 7.44238 38.7247 7.44238 40.7497 7.44238C40.7497 13.4595 40.7497 19.457 40.7497 25.5021C38.8223 25.5021 36.9061 25.5021 34.9035 25.5021C34.9035 24.7689 34.9035 24.0384 34.9035 23.3864C33.8268 24.0496 32.8422 24.8417 31.7237 25.3118C28.7057 26.5796 25.6208 26.644 22.6029 25.2782C20.3826 24.2735 19.2418 22.4712 19.2167 20.042C19.1777 16.0007 19.2028 11.9594 19.2028 7.92095C19.2028 7.78382 19.2279 7.64948 19.2446 7.46477C21.2445 7.46477 23.2249 7.46477 25.3196 7.46477C25.3196 7.75024 25.3196 8.01891 25.3196 8.28758C25.3196 11.4221 25.314 14.5566 25.3224 17.6939C25.328 20.375 26.5441 21.6008 29.2469 21.6148C29.9358 21.6176 30.6498 21.57 31.3137 21.4021C33.4642 20.8508 34.6496 19.1996 34.6803 16.7087C34.7138 13.8989 34.6915 11.089 34.6915 8.27918C34.6859 8.0245 34.6859 7.77262 34.6859 7.44238Z" stroke="black"/>
<path d="M127.888 51.2275C125.908 51.2275 123.992 51.2275 121.992 51.2275C121.992 50.4579 121.992 49.7302 121.992 48.9438C118.773 51.93 115.075 52.5401 111.055 51.5102C107.931 50.7069 106.358 48.5911 106.339 45.3755C106.316 41.5189 106.333 37.6624 106.333 33.8058C106.333 33.6211 106.35 33.4364 106.367 33.1369C106.604 33.1369 106.824 33.1369 107.042 33.1369C108.576 33.1369 110.11 33.1733 111.641 33.1202C112.319 33.095 112.444 33.3412 112.439 33.9514C112.414 36.9935 112.425 40.0384 112.428 43.0806C112.428 43.4528 112.433 43.825 112.464 44.1945C112.598 45.8625 113.49 46.9595 115.147 47.1834C116.207 47.3262 117.345 47.3401 118.386 47.1191C120.614 46.6489 121.788 44.9137 121.816 42.2718C121.847 39.5319 121.825 36.7892 121.825 34.0465C121.825 33.7722 121.825 33.498 121.825 33.1789C123.875 33.1789 125.858 33.1789 127.886 33.1789C127.888 39.1988 127.888 45.1796 127.888 51.2275Z" fill="black"/>
<path d="M77.0291 26.0593C75.0125 26.0593 73.0489 26.0593 71.0016 26.0593C71.0016 25.7739 71.0016 25.5276 71.0016 25.2785C71.0016 22.1888 71.0043 19.1019 70.9988 16.0121C70.996 13.415 69.7576 12.164 67.158 12.1304C66.695 12.1248 66.2236 12.1164 65.7689 12.1808C63.3674 12.5166 61.8445 13.9635 61.7022 16.3984C61.5348 19.2698 61.6102 22.1524 61.5823 25.0322C61.5795 25.3541 61.5823 25.6731 61.5823 26.0453C59.5573 26.0453 57.5964 26.0453 55.5742 26.0453C55.5742 20.0562 55.5742 14.0587 55.5742 8.00797C57.4849 8.00797 59.3955 8.00797 61.3731 8.00797C61.3731 8.83357 61.3731 9.63679 61.3731 10.4316C61.4791 10.4428 61.5432 10.4708 61.5599 10.4512C64.3604 7.70011 67.7577 7.08721 71.4701 7.76168C72.3683 7.92401 73.2664 8.25425 74.0781 8.67685C75.9246 9.64238 76.9873 11.2348 77.0263 13.3198C77.1044 17.4506 77.071 21.5871 77.0821 25.7207C77.0849 25.813 77.0542 25.9026 77.0291 26.0593Z" fill="black"/>
<path d="M1 11.512C1 10.1631 1 8.89529 1 7.51555C2.04039 7.51555 3.07799 7.48197 4.11001 7.52954C4.70412 7.55473 4.85474 7.34203 4.84637 6.7767C4.8129 5.05833 4.84637 3.33715 4.82685 1.61877C4.82127 1.17938 4.94121 0.99747 5.41259 1.00307C7.06104 1.02546 8.71227 1.02546 10.3607 1.00307C10.8237 0.99747 10.9632 1.16259 10.9576 1.60758C10.9381 3.11885 10.9493 4.62733 10.9493 6.13861C10.9493 7.51555 10.9493 7.51555 12.2937 7.51555C13.4512 7.51555 14.6087 7.51555 15.8193 7.51555C15.8193 8.84492 15.8193 10.1099 15.8193 11.4561C15.5794 11.4757 15.3367 11.5092 15.0941 11.5092C13.9086 11.5148 12.7232 11.5204 11.5406 11.5064C11.1529 11.5008 10.9437 11.5904 10.9465 12.0438C10.966 14.8089 10.9465 17.5739 10.9827 20.339C10.9967 21.5005 11.4402 21.9091 12.6228 21.9426C13.7106 21.9762 14.8012 21.951 15.9978 21.951C15.9978 23.1573 16.0062 24.3803 15.9838 25.6005C15.9811 25.7152 15.7747 25.9167 15.6491 25.9279C13.2448 26.1406 10.8377 26.4933 8.43335 26.0007C5.9286 25.4886 4.92447 24.3411 4.87148 21.7803C4.80732 18.6906 4.84358 15.6009 4.83801 12.5112C4.83522 11.5148 4.83801 11.5148 3.81156 11.5148C2.88274 11.512 1.9595 11.512 1 11.512Z" stroke="black"/>
<path d="M83.8461 11.9737C82.4877 11.9737 81.266 11.9737 79.9941 11.9737C79.9941 10.6248 79.9941 9.34019 79.9941 7.96325C81.2632 7.96325 82.5017 7.96325 83.7541 7.96325C83.8266 6.90815 83.86 5.93702 83.966 4.97708C84.1724 3.12156 85.1821 1.97131 87.037 1.59629C89.6115 1.07854 92.1999 1.26605 94.8246 1.3752C94.8246 2.6178 94.8246 3.78765 94.8246 4.99107C93.8567 4.99107 92.9335 4.99387 92.013 4.99107C90.3283 4.98547 89.9657 5.3381 89.9406 7.0117C89.935 7.28877 89.9406 7.56584 89.9406 7.93526C91.5667 7.93526 93.1538 7.93526 94.7911 7.93526C94.7911 9.3122 94.7911 10.5968 94.7911 11.9513C93.2068 11.9513 91.6365 11.9513 89.9741 11.9513C89.9741 16.6699 89.9741 21.3213 89.9741 26.0342C87.8989 26.0342 85.9185 26.0342 83.8461 26.0342C83.8461 21.3968 83.8461 16.7426 83.8461 11.9737Z" fill="black"/>
<path d="M102.303 51.2416C100.283 51.2416 98.3171 51.2416 96.3032 51.2416C96.3032 43.0891 96.3032 34.973 96.3032 26.7925C98.3031 26.7925 100.281 26.7925 102.303 26.7925C102.303 34.9282 102.303 43.0471 102.303 51.2416Z" fill="black"/>
<path d="M51.2959 26.0648C49.2904 26.0648 47.324 26.0648 45.3018 26.0648C45.3018 20.042 45.3018 14.0445 45.3018 8.0022C47.2961 8.0022 49.2597 8.0022 51.2959 8.0022C51.2959 13.9941 51.2959 19.9889 51.2959 26.0648Z" fill="black"/>
<path d="M51.3293 1.55982C51.3293 2.99833 51.3293 4.3137 51.3293 5.72983C50.3056 5.72983 49.3182 5.72983 48.328 5.72983C47.335 5.72983 46.3421 5.72983 45.2543 5.72983C45.2543 4.39487 45.2459 3.12707 45.271 1.85928C45.2738 1.75853 45.5109 1.57382 45.6392 1.57382C47.5136 1.55422 49.3879 1.55982 51.3293 1.55982Z" fill="black"/>
<path d="M154.414 26.7282C152.766 26.7422 151.114 26.7534 149.469 26.7226C148.936 26.7115 148.799 26.8962 148.805 27.4055C148.827 29.7284 148.813 32.0513 148.813 34.3742C148.813 34.6233 148.813 34.8751 148.813 35.0487C147.826 34.4749 146.945 33.8145 145.96 33.417C143.913 32.5914 141.751 32.4991 139.586 32.8489C135.16 33.5626 132.056 36.4452 131.383 40.6096C130.809 44.1723 131.551 47.3936 134.502 49.7556C136.984 51.7427 139.93 52.1317 142.998 51.9022C145.201 51.7343 147.151 50.973 148.705 49.3414C148.76 49.2826 148.844 49.2519 149.034 49.1371C149.034 49.8956 149.034 50.5504 149.034 51.2165C151.061 51.2165 152.994 51.2165 154.941 51.2165C154.964 51.0738 154.989 50.9842 154.989 50.8947C154.992 43.0192 154.989 35.1466 155 27.2712C155 26.8262 154.813 26.7226 154.414 26.7282ZM144.284 47.4691C143.238 47.5335 142.133 47.4803 141.129 47.2088C138.856 46.5903 137.587 44.7908 137.525 42.4035C137.467 40.117 138.711 38.2615 140.9 37.4807C142.457 36.9238 144.049 36.9154 145.611 37.4583C147.818 38.2251 149.025 39.9883 149.023 42.3448C149.017 45.1434 147.081 47.2984 144.284 47.4691Z" fill="black"/>
<path d="M92.5543 38.7344C92.5459 35.9497 91.3968 34.3181 88.7498 33.3918C85.9382 32.4094 83.0095 32.3674 80.0808 32.499C78.0335 32.5913 76.0057 32.8236 74.1481 33.8032C72.2123 34.8275 71.1998 36.4619 70.9209 38.698C72.7311 38.698 74.466 38.684 76.2037 38.7064C76.6389 38.712 76.8564 38.5833 77.021 38.1607C77.3836 37.2399 77.9889 36.4703 79.0014 36.2604C81.0487 35.8378 83.1099 35.8378 85.1265 36.4451C86.1335 36.7501 86.5295 37.461 86.4124 38.4741C86.3008 39.4285 85.8406 39.8595 84.7165 39.9546C82.8673 40.1113 81.0152 40.2345 79.1631 40.3688C77.06 40.5227 74.9346 40.5507 72.9403 41.3651C71.3505 42.0144 70.179 43.0667 69.8443 44.8383C69.2195 48.1351 70.8065 50.6539 74.1062 51.4963C77.074 52.2547 80.0585 52.1204 82.976 51.278C84.2619 50.9086 85.4585 50.2229 86.7276 49.6688C86.7276 50.1054 86.7276 50.6455 86.7276 51.222C88.6968 51.222 90.5851 51.222 92.5153 51.222C92.532 50.9758 92.5571 50.7742 92.5571 50.5699C92.5599 46.6294 92.5683 42.6833 92.5543 38.7344ZM83.7989 47.6845C82.0249 48.443 80.1812 48.6529 78.2985 48.1743C77.8633 48.0623 77.431 47.8357 77.0628 47.5698C76.3293 47.0408 76.1507 46.2544 76.2874 45.4008C76.4129 44.62 76.8899 44.0435 77.6486 43.8923C78.9149 43.6405 80.2035 43.4949 81.4866 43.3326C83.1741 43.1199 84.8671 42.938 86.6132 42.7337C86.9396 45.0958 86.0609 46.719 83.7989 47.6845Z" fill="black"/>
<path d="M115.027 7.96043C111.58 7.02008 108.085 7.02288 104.618 7.84569C101.608 8.55935 99.1817 10.1098 97.9823 13.1324C97.271 14.9263 97.1818 16.807 97.4161 18.6905C97.801 21.7746 99.3881 24.0443 102.222 25.3905C104.562 26.5016 107.067 26.759 109.622 26.8598C110.869 26.7394 112.115 26.6331 113.359 26.4932C113.795 26.4456 114.227 26.3364 114.654 26.2301C118.21 25.3373 121.309 23.2159 121.83 18.559C122.383 13.6165 120.558 9.46611 115.027 7.96043ZM114.595 20.5068C113.917 21.4248 112.991 21.9845 111.912 22.2728C110.38 22.6842 108.83 22.6786 107.298 22.2672C104.955 21.6403 103.644 19.7512 103.644 17.0617C103.644 13.804 105.497 11.7918 108.768 11.5679C109.594 11.5119 110.453 11.5231 111.259 11.6827C115.256 12.4663 117.03 17.2044 114.595 20.5068Z" fill="black"/>
</g>
<defs>
<clipPath id="clip0">
<rect width="155" height="52" fill="white"/>
</clipPath>
</defs>
</svg>
